<svg xmlns="http://www.w3.org/2000/svg" xmlns:xlink="http://www.w3.org/1999/xlink" width="44" height="36" viewBox="0 0 44 36"><defs><linearGradient x1="50%" y1="100%" x2="50%" y2="0%" id="a"><stop stop-color="#fff" stop-opacity="0" offset="0%"/><stop stop-color="#fff" stop-opacity=".15" offset="100%"/></linearGradient><path d="M28.89 25.465l9.232-15.208C41.562 4.592 49.722 0 56.35 0h3v28h-32c.593-.788 1.11-1.637 1.54-2.535zm-14.54 8.502V34h45v-6h-32c-2.736 3.643-7.093 6-12 6-.336 0-.67-.01-1-.033z" id="b"/></defs><g fill="none" fill-rule="evenodd"><path d="M14.89 25.465l9.232-15.208C27.562 4.592 35.722 0 42.35 0h3v28h-32c.593-.788 1.11-1.637 1.54-2.535zM.35 33.967V34h45v-6h-32c-2.736 3.643-7.093 6-12 6-.336 0-.67-.01-1-.033z" fill="#1b60a6"/><g transform="translate(-14)"><use fill="url(#a)" xlink:href="#b"/><use xlink:href="#b"/></g></g></svg>