<?xml version="1.0" encoding="utf-8"?>
<!DOCTYPE svg PUBLIC "-//W3C//DTD SVG 1.1//EN" "http://www.w3.org/Graphics/SVG/1.1/DTD/svg11.dtd">
<svg version="1.1" id="Layer_1" xmlns="http://www.w3.org/2000/svg" xmlns:xlink="http://www.w3.org/1999/xlink" x="0px" y="0px"
  width="35px" height="35px" viewBox="0 0 50 50" enable-background="new 0 0 50 50" xml:space="preserve">
<path fill="#FFFFFF" d="M0,7v2.781c3.012,2.622,20.289,17.684,21.656,18.875C23.062,29.881,24.466,30,25,30s1.938-0.119,3.344-1.344
 C29.762,27.42,48.046,11.482,50,9.781V7H0z M0,12.438v25.094l15.125-11.938C10.224,21.327,3.231,15.25,0,12.438z M50,12.438
 c-3.051,2.655-10.154,8.829-15.125,13.156L50,37.5V12.438z M16.656,26.938L0,40.062V43h50v-2.969L33.344,26.938
 c-1.938,1.686-3.334,2.91-3.688,3.219C27.739,31.825,25.759,32,25,32s-2.739-0.174-4.656-1.844
 C19.993,29.85,18.597,28.627,16.656,26.938z"/>
</svg>